<?xml version="1.0" standalone="no"?>
<!DOCTYPE svg PUBLIC "-//W3C//DTD SVG 20010904//EN"
 "http://www.w3.org/TR/2001/REC-SVG-20010904/DTD/svg10.dtd">
<svg version="1.0" xmlns="http://www.w3.org/2000/svg"
 width="24.000000pt" height="24.000000pt" viewBox="0 0 24.000000 24.000000"
 preserveAspectRatio="xMidYMid meet">
<metadata>
Created by potrace 1.16, written by Peter Selinger 2001-2019
</metadata>
<g transform="translate(0.000000,24.000000) scale(0.010667,-0.010667)"
fill="#000000" stroke="none">
<path d="M1225 2110 c3 -5 -3 -10 -14 -10 -12 0 -21 -7 -21 -15 0 -8 -3 -15
-7 -15 -10 0 -65 -47 -64 -54 2 -18 -2 -25 -34 -59 -19 -20 -35 -42 -35 -47 0
-6 -10 -22 -22 -35 -38 -40 -48 -54 -48 -65 0 -5 -4 -10 -9 -10 -5 0 -14 -13
-21 -30 -7 -16 -16 -30 -21 -30 -5 0 -9 -6 -9 -14 0 -8 -7 -16 -15 -20 -8 -3
-15 -10 -15 -16 0 -6 -9 -20 -20 -32 -11 -12 -20 -28 -20 -35 0 -13 -7 -23
-37 -58 -7 -7 -13 -18 -13 -24 0 -6 -4 -11 -10 -11 -5 0 -10 -9 -10 -20 0 -11
-4 -20 -9 -20 -5 0 -12 -11 -15 -25 -4 -14 -11 -23 -16 -20 -5 3 -7 0 -4 -8 3
-8 -2 -21 -10 -30 -9 -9 -16 -23 -16 -31 0 -9 -4 -16 -10 -16 -5 0 -10 -7 -10
-15 0 -8 -4 -15 -10 -15 -5 0 -10 -8 -10 -19 0 -10 -6 -24 -14 -31 -8 -6 -12
-18 -9 -26 3 -8 -1 -14 -11 -14 -9 0 -16 -8 -16 -19 0 -11 -5 -23 -10 -26 -5
-3 -10 -15 -10 -26 0 -10 -4 -19 -10 -19 -5 0 -10 -8 -10 -19 0 -10 -7 -24
-15 -31 -8 -7 -15 -19 -15 -26 0 -8 -4 -14 -10 -14 -5 0 -10 -9 -10 -19 0 -11
-4 -23 -10 -26 -5 -3 -10 -15 -10 -26 0 -10 -4 -19 -9 -19 -4 0 -11 -26 -15
-58 -7 -63 7 -122 30 -122 8 0 14 -4 14 -10 0 -5 9 -10 19 -10 11 0 23 -4 26
-10 3 -5 35 -10 70 -10 35 0 67 5 70 10 3 6 24 10 46 10 21 0 39 5 39 10 0 6
16 10 35 10 19 0 35 5 35 10 0 6 18 10 41 10 22 0 38 4 35 9 -6 10 26 21 62
21 22 0 32 -25 11 -32 -9 -3 -16 -24 -18 -56 -1 -7 -5 -10 -11 -7 -6 4 -10 -5
-10 -19 0 -14 -4 -26 -10 -26 -5 0 -10 -13 -10 -29 0 -17 -4 -33 -10 -36 -5
-3 -10 -14 -10 -25 0 -10 -7 -20 -15 -24 -9 -3 -15 -18 -15 -36 0 -16 -4 -30
-10 -30 -5 0 -10 -16 -10 -35 0 -19 -4 -35 -10 -35 -5 0 -10 -16 -10 -35 0
-19 -4 -35 -10 -35 -5 0 -10 -13 -10 -29 0 -16 -7 -36 -15 -45 -20 -20 -22
-166 -2 -166 8 0 20 -11 27 -25 11 -21 20 -25 62 -25 27 0 55 6 63 13 7 6 25
21 40 31 14 11 33 31 40 45 11 23 23 39 65 88 5 7 10 15 10 18 0 3 10 17 23
30 38 41 48 55 40 55 -4 0 4 10 18 23 14 12 33 36 42 54 9 17 25 38 35 45 11
7 26 27 35 43 13 26 25 42 67 92 5 7 10 15 10 18 0 3 10 17 23 30 35 38 47 54
47 62 0 5 9 15 20 23 11 8 20 22 20 32 0 10 5 18 10 18 6 0 10 5 10 11 0 6 11
20 25 31 14 11 25 26 25 34 0 8 5 14 10 14 6 0 10 5 10 10 0 6 10 22 23 35 31
34 40 46 57 80 8 17 20 35 25 42 6 7 15 19 22 27 6 7 9 16 6 20 -3 3 2 8 11
12 9 3 16 15 16 25 0 10 5 19 10 19 6 0 10 7 10 15 0 8 5 15 10 15 6 0 10 9
10 20 0 11 7 20 15 20 12 0 15 15 15 75 0 42 -5 81 -10 88 -42 50 -61 67 -75
67 -8 0 -15 5 -15 10 0 6 -40 10 -101 10 -64 0 -98 -4 -94 -10 4 -6 -11 -10
-38 -10 -31 0 -47 -5 -51 -15 -3 -9 -19 -15 -41 -15 -19 0 -35 -4 -35 -10 0
-5 -25 -10 -55 -10 -53 0 -72 11 -40 24 8 3 15 15 15 26 0 11 5 20 10 20 6 0
10 9 10 20 0 11 5 20 10 20 6 0 10 11 10 25 0 14 5 25 10 25 6 0 10 9 10 19 0
11 7 26 15 35 8 8 15 24 15 35 0 12 5 21 10 21 6 0 10 16 10 35 0 19 5 35 10
35 6 0 10 16 10 35 0 19 5 35 10 35 6 0 10 41 10 104 0 112 -17 166 -52 166
-10 0 -18 5 -18 10 0 6 -34 10 -81 10 -51 0 -78 -4 -74 -10z"/>
</g>
</svg>
